PathFileType	4	(X/Y/Z)	E:\Studenten\Marcel_BSc\Hannes_22_01_2025\22-01-2025\static_01.trc
DataRate	CameraRate	NumFrames	NumMarkers	Units	OrigDataRate	OrigDataStartFrame	OrigNumFrames
200.0	200.0	4	59	mm	200.0	63	497	
Frame#	Time	FHD			LBHD			RBHD			RBAR			LBAR			RASI			RSACR			LSACR			LASI			USACR			C7			CLAV			T10			RSHO			LSHO			LTHI1			LTHI3			LTHI2			LLFC			LMFC			LTIB1			LTIB2			LTIB3			LMMAL			LLMAL			LHEE			LMT1			LMT5			LMT3			RTHI1			RTHI2			RTHI3			RLFC			RMFC			RTIB1			RTIB3			RTIB2			RLMAL			RMMAL			RHEE			RMT5			RMT1			RMT3			LMEP			LLEP			LDUPA			LMUPA			LUUPA			LUL			LRAD			LRFIN			RUL			RRAD			RUFIN			RMEP			RLEP			RMUPA			RDUPA			RUUPA			
		X1	Y1	Z1	X2	Y2	Z2	X3	Y3	Z3	X4	Y4	Z4	X5	Y5	Z5	X6	Y6	Z6	X7	Y7	Z7	X8	Y8	Z8	X9	Y9	Z9	X10	Y10	Z10	X11	Y11	Z11	X12	Y12	Z12	X13	Y13	Z13	X14	Y14	Z14	X15	Y15	Z15	X16	Y16	Z16	X17	Y17	Z17	X18	Y18	Z18	X19	Y19	Z19	X20	Y20	Z20	X21	Y21	Z21	X22	Y22	Z22	X23	Y23	Z23	X24	Y24	Z24	X25	Y25	Z25	X26	Y26	Z26	X27	Y27	Z27	X28	Y28	Z28	X29	Y29	Z29	X30	Y30	Z30	X31	Y31	Z31	X32	Y32	Z32	X33	Y33	Z33	X34	Y34	Z34	X35	Y35	Z35	X36	Y36	Z36	X37	Y37	Z37	X38	Y38	Z38	X39	Y39	Z39	X40	Y40	Z40	X41	Y41	Z41	X42	Y42	Z42	X43	Y43	Z43	X44	Y44	Z44	X45	Y45	Z45	X46	Y46	Z46	X47	Y47	Z47	X48	Y48	Z48	X49	Y49	Z49	X50	Y50	Z50	X51	Y51	Z51	X52	Y52	Z52	X53	Y53	Z53	X54	Y54	Z54	X55	Y55	Z55	X56	Y56	Z56	X57	Y57	Z57	X58	Y58	Z58	X59	Y59	Z59	
63	0.31	66.752701	1709.5127	-1221.8822	150.49031	1680.4668	-1120.5376	163.48335	1675.6451	-1314.7103	-530.18323	25.841051	-2111.4626	-499.4101	36.260094	112.2653	110.39501	988.20245	-1329.9932	303.15503	1050.1068	-1256.0576	303.50204	1055.4847	-1148.7395	116.71709	994.87097	-1060.951	304.05228	1074.5979	-1201.684	293.87302	1170.7137	-1202.0869	124.63771	1448.9769	-1207.3419	294.79498	1492.989	-1206.903	274.62198	1484.2677	-1366.5609	272.56461	1491.3837	-1046.6016	212.91339	791.86499	-982.96735	184.10495	731.98376	-973.5069	234.16306	729.00385	-982.47131	223.53812	504.24768	-998.68048	206.77733	464.94083	-1106.635	319.77316	278.00351	-966.76105	269.37939	267.89142	-961.71234	306.12714	214.09187	-968.41846	277.47244	86.217422	-1054.3864	309.66693	80.129272	-965.93469	354.48889	22.02072	-1015.2332	142.83678	39.996346	-996.74097	185.66692	26.602079	-915.63519	149.05753	30.094795	-948.56781	222.89767	782.12323	-1410.2996	191.05739	724.34436	-1417.4067	240.52664	717.84668	-1408.8151	218.39955	494.84283	-1384.0413	196.28046	477.6376	-1277.5187	295.14078	274.36523	-1422.7983	244.9705	277.46472	-1414.1244	268.75595	215.6859	-1414.0359	295.14871	79.98558	-1409.9349	257.50092	83.380806	-1322.7096	343.88684	30.205818	-1366.317	184.15605	27.412481	-1460.9681	124.55434	36.018509	-1389.7174	135.75038	28.373405	-1438.1534	215.4803	1357.4398	-769.61023	278.56638	1447.9946	-762.12708	287.53168	1441.3861	-829.02283	253.19209	1482.9436	-887.75983	290.56784	1449.9015	-890.21832	197.68037	1480.8279	-520.02551	155.64424	1501.7787	-534.65302	113.06908	1493.0504	-434.34589	218.45325	1467.0698	-1902.2443	174.82155	1491.6205	-1883.9222	158.20824	1486.5944	-1996.563	231.58386	1351.7615	-1638.1538	296.9505	1439.8524	-1653.5522	311.29453	1426.1951	-1548.0709	290.9726	1451.0465	-1585.9359	290.98715	1471.3555	-1509.3287
64	0.315	66.697426	1709.5179	-1221.847	150.48167	1680.4543	-1120.5309	163.45558	1675.6398	-1314.7073	-530.21063	25.816444	-2111.436	-499.41721	36.260937	112.2697	110.32864	988.16687	-1329.9751	303.14398	1050.1073	-1256.0427	303.48792	1055.4783	-1148.7286	116.7025	994.86176	-1060.9521	304.02914	1074.5906	-1201.6763	293.85706	1170.7159	-1202.068	124.6174	1448.9751	-1207.3411	294.78375	1492.9866	-1206.9069	274.61053	1484.2592	-1366.5543	272.56024	1491.3809	-1046.6036	212.88582	791.90887	-982.96277	184.11694	731.99432	-973.49451	234.1442	729.01746	-982.45312	223.52667	504.24808	-998.68036	206.77623	464.9603	-1106.5934	319.74429	277.98718	-966.76178	269.39819	267.88696	-961.72791	306.12607	214.10085	-968.40375	277.47055	86.222298	-1054.3921	309.67368	80.120895	-965.9425	354.48108	22.018599	-1015.2308	142.83807	39.996773	-996.74066	185.6722	26.5965	-915.63342	149.0584	30.096132	-948.56665	222.88864	782.12683	-1410.3066	191.06068	724.35077	-1417.4087	240.49373	717.86584	-1408.7971	218.40875	494.85626	-1384.0569	196.2758	477.62253	-1277.5143	295.14554	274.37036	-1422.8014	245.00415	277.42929	-1414.1936	268.74481	215.71811	-1414.0244	295.14893	79.98243	-1409.9282	257.49957	83.380135	-1322.7174	343.85474	30.201685	-1366.3513	184.15492	27.40336	-1460.9684	124.54951	36.008129	-1389.7186	135.75291	28.373299	-1438.1512	215.4857	1357.4596	-769.61511	278.56433	1448.0126	-762.1344	287.52341	1441.4	-829.0235	253.23865	1483.0997	-887.8573	290.561	1449.9216	-890.23346	197.68155	1480.8719	-520.02692	155.6474	1501.8303	-534.64948	113.07204	1493.0914	-434.35733	218.43773	1467.1157	-1902.2249	174.82214	1491.6709	-1883.9178	158.22458	1486.6553	-1996.5616	231.74249	1351.5602	-1638.3179	296.94492	1439.8706	-1653.543	311.28485	1426.2073	-1548.0837	290.93964	1451.0836	-1585.9	290.96887	1471.3672	-1509.3324
65	0.32	66.252274	1709.7966	-1221.5391	150.47459	1680.4595	-1120.5215	163.40677	1675.6532	-1314.6979	-530.20575	25.831657	-2111.4255	-499.42935	36.266823	112.27539	110.35204	988.19006	-1330	303.12561	1050.1074	-1256.0459	303.46997	1055.4871	-1148.7198	116.68354	994.86511	-1060.9493	304.01685	1074.594	-1201.6704	293.85532	1170.7159	-1202.0597	124.61112	1448.9796	-1207.3397	294.78	1492.9764	-1206.9133	274.60233	1484.2563	-1366.5579	272.55179	1491.3907	-1046.6158	212.89333	791.875	-982.96088	184.10925	731.98816	-973.49176	234.11047	729.01837	-982.4649	223.52704	504.25375	-998.6673	206.76514	464.9613	-1106.5935	319.73663	278.00781	-966.74316	269.39972	267.87292	-961.71771	306.117	214.10147	-968.4046	277.46204	86.224594	-1054.3995	309.67145	80.133087	-965.94165	354.48245	22.023005	-1015.2292	142.84076	39.991581	-996.73962	185.65604	26.602407	-915.63593	149.0668	30.087318	-948.56976	222.88644	782.12573	-1410.2902	191.05171	724.35626	-1417.4016	240.50487	717.8761	-1408.7887	218.40485	494.85324	-1384.0459	196.2751	477.6391	-1277.5006	295.14587	274.37009	-1422.8008	244.99762	277.48792	-1414.1479	268.76062	215.69881	-1414.0356	295.1463	79.982971	-1409.9053	257.50275	83.374573	-1322.7101	343.86246	30.192966	-1366.3185	184.14824	27.399857	-1460.962	124.55376	36.015079	-1389.7069	135.75993	28.369902	-1438.1547	215.47574	1357.4987	-769.62372	278.54367	1448.0585	-762.13379	287.52634	1441.4272	-829.03351	253.23933	1483.1283	-887.8584	290.55634	1449.9434	-890.24164	197.67863	1480.9066	-520.0697	155.63831	1501.8623	-534.66687	113.04733	1493.1508	-434.37234	218.40755	1467.1982	-1902.1471	174.82419	1491.731	-1883.907	158.23885	1486.7213	-1996.558	231.73662	1351.582	-1638.3309	296.93433	1439.896	-1653.559	311.2641	1426.2111	-1548.0787	290.92014	1451.0944	-1585.9044	290.95102	1471.3759	-1509.333
66	0.325	66.206772	1709.7781	-1221.532	150.45853	1680.4412	-1120.5216	163.35532	1675.6534	-1314.6953	-530.2337	25.828358	-2111.4426	-499.42636	36.267353	112.27694	110.38085	988.23114	-1329.9532	303.11713	1050.108	-1256.0436	303.44858	1055.4893	-1148.7141	116.67079	994.86963	-1060.9395	303.99957	1074.5924	-1201.6656	293.82889	1170.7183	-1202.0464	124.60181	1448.9713	-1207.344	294.75635	1492.9873	-1206.9142	274.60611	1484.2545	-1366.5533	272.54526	1491.3995	-1046.6243	212.87129	791.91901	-982.94623	184.08099	731.99725	-973.48108	234.08098	729.02441	-982.45599	223.5107	504.24057	-998.67023	206.75954	464.96014	-1106.5968	319.75259	277.98715	-966.74835	269.35849	267.86731	-961.7052	306.12369	214.10516	-968.40692	277.45694	86.220947	-1054.3973	309.66895	80.127647	-965.935	354.48331	22.014938	-1015.2099	142.83784	39.992928	-996.7373	185.65816	26.601255	-915.63354	149.06226	30.092968	-948.56256	222.88377	782.13446	-1410.2723	191.05399	724.35529	-1417.4017	240.48926	717.8681	-1408.7585	218.40669	494.85034	-1384.0458	196.26277	477.62689	-1277.5039	295.14606	274.37192	-1422.7864	245.04149	277.41406	-1414.2969	268.75574	215.69238	-1414.0298	295.15671	79.982872	-1409.9269	257.49319	83.371063	-1322.7078	343.86847	30.174089	-1366.303	184.15691	27.394972	-1460.9631	124.54643	36.005733	-1389.7159	135.7556	28.359505	-1438.1569	215.45749	1357.5146	-769.62646	278.53857	1448.0714	-762.14337	287.5173	1441.434	-829.0401	253.22845	1483.1405	-887.875	290.55301	1449.9655	-890.24261	197.68332	1480.9373	-520.06311	155.64241	1501.9006	-534.66675	113.05875	1493.1909	-434.37186	218.39058	1467.2498	-1902.1093	174.82898	1491.7632	-1883.9116	158.24672	1486.7963	-1996.5466	231.72299	1351.5935	-1638.3424	296.90851	1439.9121	-1653.5519	311.25504	1426.2203	-1548.0787	290.89218	1451.1287	-1585.8831	290.93781	1471.37	-1509.3256
